<svg height="480pt" viewBox="0 -56 480.00002 480" width="480pt" xmlns="http://www.w3.org/2000/svg"><path d="m472 24.980469h-118.59375l-56-20.351563c-21.679688-7.9375-45.792969-5.582031-65.527344 6.402344l-158.542968 95.703125c-.707032.433594-1.34375.972656-1.886719 1.601563-10.292969 11.832031-10.957031 29.234374-1.601563 41.820312 6.257813 8.359375 16.097656 13.269531 26.535156 13.242188 2.585938-.035157 5.15625-.363282 7.664063-.976563.289063 14.058594 5.230469 27.625 14.050781 38.574219h-94.097656c-13.253906 0-24 10.746094-24 24v136c0 4.421875 3.582031 8 8 8h336c4.417969 0 8-3.578125 8-8v-136c0-13.253906-10.746094-24-24-24h-110.121094c7.210938-8.964844 11.851563-19.722656 13.433594-31.117188l26.832031 5.960938c1.710938.378906 3.457031.570312 5.207031.574218 2.589844 0 5.160157-.417968 7.617188-1.238281l64.941406-21.714843 25.386719-8.464844h38.703125v24c0 4.421875 3.582031 8 8 8h64c4.417969 0 8-3.578125 8-8v-136c.003906-2.121094-.835938-4.160156-2.335938-5.664063-1.503906-1.503906-3.539062-2.351562-5.664062-2.351562zm-136 328h-320v-72h320zm-64-120v-16h56c4.417969 0 8 3.582031 8 8v40h-320v-40c0-4.417969 3.582031-8 8-8h56v16c0 8.839843 7.164062 16 16 16h160c8.835938 0 16-7.160157 16-16zm-16-16v16h-160v-16h41.089844c19.242187 10.6875 42.636718 10.6875 61.878906 0 .046875.003906.09375.003906.144531 0zm-59.566406-66.398438c4.253906 7.402344 11.144531 12.925781 19.292968 15.472657-.878906 8.179687-3.859374 15.992187-8.648437 22.679687l-10.789063-10.800781c-.144531-.136719-.328124-.183594-.480468-.3125 2.101562-7.21875.023437-15.011719-5.402344-20.21875-5.425781-5.210938-13.292969-6.972656-20.421875-4.582032l-7.585937 2.523438c-1.160157.398438-2.4375.269531-3.496094-.363281-1.671875-.960938-2.484375-2.929688-1.984375-4.796875.503906-1.863282 2.199219-3.15625 4.128906-3.144532h7.671875c4.417969 0 8-3.582031 8-8 0-4.417968-3.582031-8-8-8h-7.671875c-3.246094.015626-6.441406.816407-9.3125 2.335938l-11.503906-11.503906c16.164062-11.632813 37.878906-11.914063 54.335937-.703125-.253906.628906-.589844 1.207031-.796875 1.863281-3.058593 9.152344-2.09375 19.171875 2.664063 27.566406zm-54.832032-4.710937c-2.046874 7.210937.070313 14.964844 5.496094 20.136718 5.421875 5.175782 13.265625 6.921876 20.375 4.542969l7.574219-2.519531c1.160156-.378906 2.425781-.25 3.480469.359375 1.671875.960937 2.488281 2.929687 1.988281 4.792969-.503906 1.863281-2.195313 3.15625-4.125 3.152344h-7.671875c-4.417969 0-8 3.578124-8 8 0 4.417968 3.582031 8 8 8h7.671875c3.25-.019532 6.441406-.820313 9.3125-2.339844l10.066406 10.035156c-19.0625 13.617188-45.175781 11.457031-61.742187-5.109375-16.566406-16.5625-18.726563-42.679687-5.105469-61.738281zm258.398438-16.890625h-40c-.859375.003906-1.714844.144531-2.527344.417969l-24 8-5.472656 1.832031-1.257812.414062-60.855469 20.34375c-1.378907.464844-2.859375.539063-4.277344.21875l-39.480469-8.800781c-4.988281-1.105469-9.269531-4.269531-11.785156-8.714844-2.519531-4.441406-3.03125-9.746094-1.414062-14.589844 2.757812-8.265624 11.027343-13.375 19.65625-12.152343l34.492187 4.929687c1.617187.214844 3.261719-.0625 4.714844-.800781l16-8c3.953125-1.988281 5.542969-6.804687 3.554687-10.757813-1.988281-3.949218-6.804687-5.542968-10.753906-3.554687l-13.769531 6.878906-32-4.574219c-9.699219-1.371093-19.519531 1.503907-26.953125 7.886719-25.324219-17.199219-59.292969-14.019531-80.984375 7.585938-.046875.054687-.117188.0625-.175781.117187-.054688.058594-.0625.121094-.109376.179688-7.90625 7.964844-13.574218 17.875-16.433593 28.726562l-3.199219 1.511719c-7.199219 2.949219-15.480469.710937-20.214844-5.460937-4.730468-6.171876-4.746094-14.75-.035156-20.9375l157.449219-94.960938c15.601562-9.464844 34.660156-11.328125 51.800781-5.058594l57.296875 20.800782c.875.320312 1.800781.480468 2.734375.480468h48zm64 32h-48v-120h48zm0 0"/><path d="m432 128.980469h16v16h-16zm0 0"/></svg>